<svg xmlns="http://www.w3.org/2000/svg" width="1200" height="627" viewBox="0 0 1200 627" role="img" aria-labelledby="title desc">
  <title id="title">Session Exporter — portable Markdown handoffs</title>
  <desc id="desc">A branded social preview card for Session Exporter by Tor Production.</desc>
  <defs>
    <linearGradient id="background" x1="0" y1="0" x2="1200" y2="627" gradientUnits="userSpaceOnUse">
      <stop offset="0" stop-color="#171B3A"/>
      <stop offset="1" stop-color="#090D1C"/>
    </linearGradient>
    <linearGradient id="accent" x1="120" y1="72" x2="500" y2="480" gradientUnits="userSpaceOnUse">
      <stop offset="0" stop-color="#8B7CFF"/>
      <stop offset="0.52" stop-color="#635BFF"/>
      <stop offset="1" stop-color="#20C8FF"/>
    </linearGradient>
  </defs>
  <rect width="1200" height="627" fill="url(#background)"/>
  <circle cx="1080" cy="84" r="190" fill="#635BFF" opacity="0.14"/>
  <circle cx="70" cy="590" r="220" fill="#20C8FF" opacity="0.09"/>
  <path d="M0 525C260 420 406 530 650 468s360-72 550-8v167H0Z" fill="#070A16" opacity="0.62"/>

  <g transform="translate(80 124) scale(.66)">
    <path d="M112 126c0-30.9 25.1-56 56-56h176c30.9 0 56 25.1 56 56v184c0 30.9-25.1 56-56 56h-96l-66.4 58.8c-12.9 11.4-33.2 2.3-33.2-14.9V366H168c-30.9 0-56-25.1-56-56V126Z" fill="url(#accent)"/>
    <path d="M186 124h92l50 50v84c0 13.3-10.7 24-24 24H186c-13.3 0-24-10.7-24-24V148c0-13.3 10.7-24 24-24Z" fill="#fff"/>
    <path d="M278 124l50 50h-34c-8.8 0-16-7.2-16-16v-34Z" fill="#DCD9FF"/>
    <path d="M194 190h96M194 220h96M194 250h58" fill="none" stroke="#34305F" stroke-width="14" stroke-linecap="round"/>
    <circle cx="330" cy="326" r="72" fill="#0E1329" stroke="#fff" stroke-width="10"/>
    <path d="M330 286v72m0 0-28-28m28 28 28-28M298 378h64" fill="none" stroke="#fff" stroke-width="14" stroke-linecap="round" stroke-linejoin="round"/>
  </g>

  <g font-family="Arial, Segoe UI, sans-serif">
    <text x="420" y="245" fill="#F7F8FF" font-size="64" font-weight="700" letter-spacing="-2">Session Exporter</text>
    <text x="424" y="315" fill="#B7BCDA" font-size="30">Portable Markdown handoffs for ChatGPT and Codex</text>
    <rect x="424" y="372" width="92" height="6" rx="3" fill="#20C8FF"/>
    <text x="424" y="425" fill="#8B7CFF" font-size="25" font-weight="700" letter-spacing="4">TOR PRODUCTION</text>
  </g>
</svg>
